<?xml version="1.0" encoding="UTF-8" standalone="no" ?>
<!DOCTYPE svg PUBLIC "-//W3C//DTD SVG 1.1//EN" "http://www.w3.org/Graphics/SVG/1.1/DTD/svg11.dtd">
<svg xmlns="http://www.w3.org/2000/svg" xmlns:xlink="http://www.w3.org/1999/xlink" version="1.1" width="200" height="200" viewBox="0 0 200 200" xml:space="preserve">
<desc>Created with Fabric.js 5.2.4</desc>
<defs>
</defs>
<g transform="matrix(1 0 0 1 100 100)" id="049925a8-8f90-40fe-9b0d-04329e98b0f5"  >
<rect style="stroke: none; stroke-width: 1; stroke-dasharray: none; stroke-linecap: butt; stroke-dashoffset: 0; stroke-linejoin: miter; stroke-miterlimit: 4; fill: rgb(255,255,255); fill-rule: nonzero; opacity: 1; visibility: hidden;" vector-effect="non-scaling-stroke"  x="-100" y="-100" rx="0" ry="0" width="200" height="200" />
</g>
<g transform="matrix(Infinity NaN NaN Infinity 0 0)" id="e1fa374f-4f73-414d-ad60-97517ff5d568"  >
</g>
<g transform="matrix(0.61 0 0 0.61 100 100)"  >
<g style="" vector-effect="non-scaling-stroke"   >
		<g transform="matrix(1 0 0 1 0 0)"  >
<rect style="stroke: none; stroke-width: 1; stroke-dasharray: none; stroke-linecap: butt; stroke-dashoffset: 0; stroke-linejoin: miter; stroke-miterlimit: 4; fill: rgb(255,255,255); fill-rule: nonzero; opacity: 1; visibility: hidden;" vector-effect="non-scaling-stroke"  x="-540" y="-540" rx="0" ry="0" width="1080" height="1080" />
</g>
		<g transform="matrix(1 0 0 1 0 59.98)"  >
<path style="stroke: none; stroke-width: 1; stroke-dasharray: none; stroke-linecap: butt; stroke-dashoffset: 0; stroke-linejoin: miter; stroke-miterlimit: 4; fill: rgb(0,0,0); fill-rule: nonzero; opacity: 1;" vector-effect="non-scaling-stroke"  transform=" translate(-514.9, -616.63)" d="M 614.730835 706.599243 C 612.690491 708.498962 610.355286 708.925537 608.21582 709.659973 C 608.878174 718.373352 607.056091 720.295471 598.244385 720.296875 C 543.419739 720.305542 488.595154 720.31427 433.770538 720.316833 C 426.672729 720.317139 425.96051 720.292725 426.04068 713.328552 C 426.113922 706.965759 422.88324 704.258728 417.753296 703.690002 C 409.169952 702.738525 405.558441 697.278931 403.234863 689.999023 C 401.869476 685.721008 400.168365 681.550842 398.76886 677.282776 C 398.224915 675.62384 397.231323 673.855103 398.535248 672.066772 C 398.89032 672.02063 399.429504 671.849426 399.492493 671.95697 C 402.530365 677.14563 407.265442 678.275513 412.907928 678.320312 C 416.575836 678.349365 419.766388 680.496216 422.701508 682.864075 C 428.096069 687.216064 433.910614 690.028748 441.137878 687.238281 C 442.566376 686.686707 444.508331 686.848022 446.040558 687.285828 C 453.882416 689.526062 461.733795 691.770996 469.447388 694.407593 C 473.918274 695.935669 478.356598 697.048462 483.085052 697.106445 C 499.646301 697.309387 515.976013 699.916748 531.977356 703.691772 C 543.348938 706.374573 554.528931 705.736877 565.529785 704.067688 C 574.795349 702.661743 582.609802 703.787659 590.000916 709.224487 C 592.238464 710.8703 594.664978 711.700989 597.4953 710.55658 C 597.37677 708.390381 594.597778 708.21283 594.421753 705.791748 C 595.764282 703.550415 597.540588 702.422668 600.197876 704.618286 C 601.738037 705.890869 602.987122 705.517212 603.889587 703.926575 C 604.762634 702.387939 605.231445 700.72406 603.282288 699.590881 C 601.012085 698.270935 598.864197 696.844543 597.021851 694.678589 C 599.363525 692.083435 602.282288 692.088684 604.963135 692.268982 C 610.719299 692.656372 614.799805 691.040955 617.237244 685.2724 C 618.764893 681.657227 621.583191 678.591125 623.795288 675.260681 C 626.989014 670.452271 626.819763 666.169495 622.029297 663.096802 C 608.257996 654.263794 593.532166 648.557129 576.70105 652.315247 C 572.208679 653.318176 569.031006 655.575867 567.887695 660.632141 C 566.572937 666.44635 560.602051 670.426025 554.521301 670.600525 C 538.387146 671.063477 522.194885 672.626221 506.216553 669.125854 C 492.436615 666.107056 478.526855 663.810242 464.705292 661.048828 C 461.209656 660.350464 457.973297 658.240967 454.690613 656.63147 C 452.583191 655.598267 452.785858 653.716003 453.448364 651.861633 C 457.686707 639.998291 453.442261 635.212891 440.975342 632.34021 C 431.412628 630.136902 421.90213 630.281189 412.2612 632.17218 C 405.452209 633.507812 401.29068 637.134888 399.349213 643.678406 C 398.670929 645.964478 398.108063 648.404846 395.964783 650.60498 C 391.936584 643.281372 392.45755 636.157593 395.164978 629.563904 C 399.734192 618.435913 403.332458 607.200806 405.099609 595.233704 C 407.3927 579.7052 412.949371 565.303833 422.806854 552.829407 C 426.268707 548.448486 431.290283 546.419678 436.314514 544.741394 C 449.423828 540.362244 462.609955 536.207581 475.817291 532.131409 C 478.99411 531.151001 480.831238 529.804749 481.382111 526.166382 C 482.214844 520.666077 488.873688 515.645813 495.152191 514.897339 C 498.140991 514.540955 501.422546 516.695251 504.171844 513.230408 C 504.927887 512.277649 507.610321 513.878174 508.428375 515.724365 C 509.251221 517.581299 508.379364 518.862488 506.677795 519.794617 C 499.97641 523.465515 498.228516 529.572205 501.881042 536.244446 C 504.629608 541.265198 508.465271 545.37439 512.49585 549.36908 C 515.208435 552.057556 517.789246 554.90918 520.172485 557.8927 C 523.60791 562.193298 528.370972 562.647034 529.934875 557.540588 C 532.703186 548.501892 540.15509 547.072693 546.971313 544.151794 C 551.467957 542.224854 555.487915 539.57019 559.103516 536.353882 C 561.628479 534.107727 564.903687 531.929321 562.273987 527.634888 C 561.739746 526.762451 562.163391 525.710205 562.939697 524.914429 C 565.576294 522.211792 575.140625 523.258301 576.054993 526.742737 C 580.584229 544.003418 595.819641 550.389709 608.620483 559.166626 C 613.394226 562.439819 618.732239 564.823486 623.449768 568.337585 C 629.994568 573.212891 632.496887 580.080933 634.171997 587.443054 C 637.227417 600.871948 637.368958 614.330627 635.722717 628.078552 C 634.424561 638.920227 633.365295 649.873779 633.226135 660.87793 C 633.164673 665.742188 631.176208 670.345215 628.440552 674.70282 C 624.88623 680.364319 619.863159 685.405334 619.377869 692.671936 C 619.1604 695.927551 615.876892 695.764771 613.750854 697.330566 C 614.249634 700.276794 618.010376 702.950256 614.730835 706.599243 M 558.845093 650.826355 C 564.252808 649.10083 565.167908 643.880249 567.213745 639.697449 C 570.709778 632.549683 575.407593 625.990356 577.93457 618.382751 C 580.955994 609.286255 577.716675 602.913696 568.78241 600.121338 C 562.239563 598.076477 555.864136 598.544617 549.236633 600.518494 C 544.241211 602.006348 542.070801 604.562256 541.836609 609.574036 C 541.472656 617.361572 540.652588 625.128845 540.33783 632.917297 C 540.125122 638.181458 538.83667 643.353149 545.862183 646.768066 C 549.914978 648.738037 553.338196 651.247803 558.845093 650.826355 M 507.001617 641.243164 C 507.536987 637.991394 508.14621 634.749451 508.576752 631.483826 C 508.79483 629.830078 508.684662 627.998779 507.220306 626.936829 C 505.341003 625.573914 503.733368 627.142151 502.279419 628.039185 C 499.095154 630.003601 497.075592 633.081055 495.420654 636.322632 C 493.359924 640.359009 494.394104 644.016602 497.797607 645.64917 C 502.026489 647.677795 504.259308 646.767212 507.001617 641.243164 M 520.452942 641.602356 C 520.675842 638.758911 522.298462 636.005554 521.241638 632.934509 C 516.741272 635.377502 515.115845 640.639526 517.077881 645.875916 C 518.969849 645.426514 519.372864 643.687317 520.452942 641.602356 z" stroke-linecap="round" />
</g>
		<g transform="matrix(1 0 0 1 18.83 -107.06)"  >
<path style="stroke: none; stroke-width: 1; stroke-dasharray: none; stroke-linecap: butt; stroke-dashoffset: 0; stroke-linejoin: miter; stroke-miterlimit: 4; fill: rgb(0,0,0); fill-rule: nonzero; opacity: 1;" vector-effect="non-scaling-stroke"  transform=" translate(-533.74, -449.6)" d="M 494.153015 425.285583 C 497.333374 422.358459 496.568329 419.688538 493.526794 418.24939 C 488.626617 415.930908 486.6185 411.313416 483.694427 407.4021 C 481.948364 405.066467 482.073944 402.806335 484.390076 400.787048 C 489.303131 396.503845 495.040436 393.797424 501.477478 393.573212 C 509.873383 393.280701 518.206482 392.492615 526.73584 393.44342 C 536.959717 394.58313 547.394592 395.073181 557.133362 398.065552 C 573.350586 403.048615 587.380066 411.944 592.879028 429.114563 C 595.997803 438.853027 596.684937 448.853058 591.064453 459.012299 C 586.859497 466.613129 583.251892 474.699036 579.21582 482.487976 C 577.030518 486.7052 572.990051 489.361847 570.126282 493.030273 C 566.905212 497.156372 563.458252 501.10614 559.393982 505.99292 C 557.010254 497.86969 558.297058 491.302979 561.50824 484.966919 C 563.009338 482.004944 565.005615 479.287415 565.719788 475.958191 C 567.348816 468.363556 563.77417 464.994385 556.151855 465.516174 C 550.272461 465.91861 544.207031 465.284637 538.379395 464.243256 C 533.467529 463.36557 528.519653 462.76709 523.644409 461.872955 C 517.622009 460.768433 514.170044 463.684265 510.967773 467.756042 C 505.48996 474.721252 496.116119 476.427582 488.315247 471.737457 C 487.06015 470.982849 486.055328 469.604767 484.383331 470.836945 C 483.305603 472.575195 485.727936 473.38562 485.371277 475.098206 C 485.330261 475.203918 485.301178 475.65976 485.081421 475.787476 C 481.905762 477.633057 481.419373 480.515015 481.482513 483.899841 C 481.621521 491.354736 481.308228 498.800293 479.878204 506.206177 C 477.951324 506.16214 478.074219 504.690582 478.052673 503.74826 C 477.851318 494.947205 475.929108 486.258301 476.339478 477.427002 C 476.412323 475.85907 476.020233 474.45163 475.43924 473.074951 C 472.450195 465.992554 472.597046 458.45871 472.219269 451.001709 C 472.050903 447.677643 473.921722 445.965088 477.007568 445.860229 C 479.628174 445.771179 480.630035 444.607269 481.484558 442.215851 C 483.904877 435.442688 490.282379 431.490509 494.153015 425.285583 M 508.431671 449.524902 C 510.979828 451.903076 514.363464 452.218018 517.479126 453.206512 C 523.708679 455.183044 530.47821 455.050995 537.251892 458.035522 C 530.272278 459.438904 524.520386 456.699982 518.560364 456.027466 C 531.810608 462.484192 545.879272 461.62207 561.024658 461.302856 C 556.789062 455.967377 551.162903 455.199524 546.806458 456.137726 C 541.444153 457.292603 538.650574 456.145905 536.200562 451.775024 C 535.415466 450.37439 533.864014 449.423737 532.784363 448.163391 C 530.77124 445.813477 529.550415 443.199158 529.97699 439.94223 C 530.715881 434.301361 528.639282 430.430267 523.665649 427.993011 C 521.434753 426.89978 519.090027 426.443329 517.347351 428.739288 C 515.559204 431.095184 514.083374 431.424133 512.492615 428.653961 C 512.057434 427.896118 511.319153 427.302032 510.449249 427.466827 C 503.90274 428.706879 496.682678 427.937103 491.736389 433.95108 C 489.917664 436.162415 489.919067 438.030945 491.802979 440.112061 C 494.214569 442.776031 497.34256 442.872437 500.551544 442.714386 C 505.819 442.454987 510.791443 442.947296 514.545471 448.081512 C 512.35199 448.397675 509.968109 446.567719 508.431671 449.524902 z" stroke-linecap="round" />
</g>
</g>
</g>
</svg>